<svg xmlns="http://www.w3.org/2000/svg" id="Layer_1" data-name="Layer 1" viewBox="78.75 66.7 202.51 88.1">
  <defs>
    <style>
      .cls-1 {
        fill: #746e61;
      }

      .cls-2 {
        fill: #252a30;
      }

      .cls-3 {
        fill: #404040;
      }

      .cls-4 {
        fill: #ffcf95;
      }
    </style>
  </defs>
  <g>
    <path class="cls-3" d="M89.42,127.48l-10.67,18.29c1.76-1.82,3.68-3.04,5.46-3.84l5.22-8.9,5.71,9.97c.98,1.72,2.81,2.78,4.8,2.78l-10.51-18.29"/>
    <path class="cls-3" d="M78.75,146.24h3.2s.42-.38,1.15-.96c4.66-3.76,7.83-4.49,7.83-4.49-4.95-.26-10.42,3.63-12.17,5.45"/>
    <path class="cls-3" d="M84.13,146.24h2.44s.32-.29,.87-.73c3.55-2.87,5.97-3.43,5.97-3.43-3.77-.2-7.94,2.77-9.28,4.16"/>
    <g>
      <path class="cls-3" d="M102.92,143.53l-.13,2.17h-1.03v-15.6h1.22v6.77c.97-1.45,2.59-2.34,4.6-2.34,3.31,0,5.59,2.4,5.59,5.71s-2.28,5.73-5.59,5.73c-2.04,0-3.71-.95-4.66-2.44Zm4.53,1.26c2.68,0,4.49-1.88,4.49-4.55s-1.81-4.53-4.49-4.53-4.51,1.88-4.51,4.53,1.83,4.55,4.51,4.55Z"/>
      <path class="cls-3" d="M118.33,143.53l-.13,2.17h-1.03v-15.6h1.22v6.77c.97-1.45,2.59-2.34,4.6-2.34,3.31,0,5.59,2.4,5.59,5.71s-2.28,5.73-5.59,5.73c-2.04,0-3.71-.95-4.66-2.44Zm4.53,1.26c2.68,0,4.49-1.88,4.49-4.55s-1.81-4.53-4.49-4.53-4.51,1.88-4.51,4.53,1.83,4.55,4.51,4.55Z"/>
      <path class="cls-3" d="M131.73,142.62c0-1.94,1.48-3.16,3.71-3.16h4.81v-.78c0-1.81-1.33-3.01-3.35-3.01-1.64,0-2.93,.84-3.37,2.15h-1.24c.53-2.02,2.28-3.29,4.59-3.29,2.72,0,4.6,1.66,4.6,4.09v7.08h-1.01l-.13-1.88c-.95,1.31-2.55,2.04-4.49,2.04-2.53,0-4.11-1.24-4.11-3.25Zm4.15,2.15c2.53,0,4.38-1.58,4.38-3.77v-.46h-4.78c-1.5,0-2.53,.82-2.53,2.07,0,1.33,1.12,2.17,2.93,2.17Z"/>
      <path class="cls-3" d="M145.35,142.41h1.2c.13,1.54,1.33,2.45,3.41,2.45,1.92,0,3.08-.74,3.08-1.94,0-1.14-1.03-1.83-3.35-2.23-2.85-.48-4.13-1.5-4.13-3.16,0-1.86,1.58-2.99,4.13-2.99s4.19,1.22,4.36,3.31h-1.22c-.13-1.43-1.24-2.21-3.14-2.21s-2.91,.74-2.91,1.92c0,1.08,.91,1.67,3.33,2.13,2.76,.53,4.13,1.62,4.13,3.27,0,1.83-1.67,3.04-4.3,3.04s-4.51-1.39-4.59-3.56Z"/>
      <path class="cls-3" d="M164.21,130.1h1.22v15.6h-1.22v-15.6Z"/>
      <path class="cls-3" d="M169.69,142.62c0-1.94,1.48-3.16,3.71-3.16h4.81v-.78c0-1.81-1.33-3.01-3.35-3.01-1.64,0-2.93,.84-3.37,2.15h-1.24c.53-2.02,2.28-3.29,4.59-3.29,2.72,0,4.6,1.66,4.6,4.09v7.08h-1.01l-.13-1.88c-.95,1.31-2.55,2.04-4.49,2.04-2.53,0-4.11-1.24-4.11-3.25Zm4.15,2.15c2.53,0,4.38-1.58,4.38-3.77v-.46h-4.78c-1.5,0-2.53,.82-2.53,2.07,0,1.33,1.12,2.17,2.93,2.17Z"/>
      <path class="cls-3" d="M184.15,134.8h1.03l.11,2.11c.86-1.56,2.38-2.38,4.13-2.38,2.85,0,4.59,2,4.59,5.14v6.03h-1.22v-5.92c0-2.51-1.35-4.07-3.52-4.07-2.3,0-3.9,1.75-3.9,4.34v5.65h-1.22v-10.9Z"/>
      <path class="cls-3" d="M197.79,140.24c0-3.31,2.3-5.71,5.59-5.71,2,0,3.62,.89,4.59,2.3v-6.72h1.22v15.6h-1.01l-.15-2.15c-.95,1.5-2.61,2.42-4.66,2.42-3.29,0-5.59-2.42-5.59-5.73Zm5.73,4.55c2.66,0,4.49-1.88,4.49-4.55s-1.83-4.53-4.49-4.53-4.51,1.88-4.51,4.53,1.83,4.55,4.51,4.55Z"/>
      <path class="cls-3" d="M218.17,134.8h1.33l1.9,4.22,2.25,5.08,2.23-5.08,1.92-4.22h1.31l-4.87,10.9h-1.2l-4.87-10.9Z"/>
      <path class="cls-3" d="M232.94,130.61c.67,0,1.12,.49,1.12,1.1s-.44,1.12-1.12,1.12-1.12-.48-1.12-1.12,.44-1.1,1.12-1.1Zm-.61,4.19h1.22v10.9h-1.22v-10.9Z"/>
      <path class="cls-3" d="M237.66,142.41h1.2c.13,1.54,1.33,2.45,3.41,2.45,1.92,0,3.08-.74,3.08-1.94,0-1.14-1.03-1.83-3.35-2.23-2.85-.48-4.13-1.5-4.13-3.16,0-1.86,1.58-2.99,4.13-2.99s4.19,1.22,4.36,3.31h-1.22c-.13-1.43-1.24-2.21-3.14-2.21s-2.91,.74-2.91,1.92c0,1.08,.91,1.67,3.33,2.13,2.76,.53,4.13,1.62,4.13,3.27,0,1.83-1.66,3.04-4.3,3.04s-4.51-1.39-4.6-3.56Z"/>
      <path class="cls-3" d="M251.32,130.61c.67,0,1.12,.49,1.12,1.1s-.44,1.12-1.12,1.12-1.12-.48-1.12-1.12,.44-1.1,1.12-1.1Zm-.61,4.19h1.22v10.9h-1.22v-10.9Z"/>
      <path class="cls-3" d="M255.94,140.24c0-3.35,2.36-5.71,5.73-5.71s5.71,2.36,5.71,5.71-2.36,5.73-5.71,5.73-5.73-2.36-5.73-5.73Zm5.73,4.55c2.66,0,4.49-1.85,4.49-4.55s-1.83-4.53-4.49-4.53-4.51,1.85-4.51,4.53,1.83,4.55,4.51,4.55Z"/>
      <path class="cls-3" d="M271.39,134.8h1.03l.11,2.11c.86-1.56,2.38-2.38,4.13-2.38,2.85,0,4.59,2,4.59,5.14v6.03h-1.22v-5.92c0-2.51-1.35-4.07-3.52-4.07-2.3,0-3.9,1.75-3.9,4.34v5.65h-1.22v-10.9Z"/>
    </g>
  </g>
  <g>
    <path class="cls-3" d="M78.75,149.68h1.24c1.25,0,2.04,.78,2.04,1.96s-.79,1.96-2.04,1.96h-1.24v-3.93Zm1.24,3.6c1.04,0,1.69-.64,1.69-1.64s-.66-1.64-1.71-1.64h-.89v3.28h.9Z"/>
    <path class="cls-3" d="M83.92,152.15c0-.9,.61-1.52,1.49-1.52s1.5,.67,1.48,1.66h-2.64c.06,.66,.5,1.08,1.15,1.08,.47,0,.85-.22,1.04-.59h.36c-.22,.56-.75,.9-1.4,.9-.88,0-1.48-.62-1.48-1.53Zm2.65-.15c-.08-.66-.53-1.06-1.16-1.06s-1.1,.42-1.16,1.06h2.32Z"/>
    <path class="cls-3" d="M88.8,152.79c0-.52,.39-.84,.99-.84h1.28v-.21c0-.48-.35-.8-.89-.8-.44,0-.78,.22-.9,.57h-.33c.14-.54,.61-.88,1.22-.88,.72,0,1.22,.44,1.22,1.09v1.89h-.27l-.03-.5c-.25,.35-.68,.54-1.19,.54-.67,0-1.09-.33-1.09-.86Zm1.11,.57c.67,0,1.17-.42,1.17-1v-.12h-1.27c-.4,0-.67,.22-.67,.55,0,.35,.3,.58,.78,.58Z"/>
    <path class="cls-3" d="M93.73,149.46h.33v4.15h-.33v-4.15Z"/>
    <path class="cls-3" d="M96.23,152.73h.32c.03,.41,.35,.65,.91,.65,.51,0,.82-.2,.82-.52,0-.3-.27-.49-.89-.59-.76-.13-1.1-.4-1.1-.84,0-.49,.42-.8,1.1-.8s1.12,.33,1.16,.88h-.33c-.03-.38-.33-.59-.84-.59s-.77,.2-.77,.51c0,.29,.24,.44,.89,.57,.73,.14,1.1,.43,1.1,.87,0,.49-.44,.81-1.14,.81s-1.2-.37-1.22-.95Z"/>
    <path class="cls-3" d="M103.57,149.59c.18,0,.3,.13,.3,.29s-.12,.3-.3,.3-.3-.13-.3-.3,.12-.29,.3-.29Zm-.16,1.12h.33v2.9h-.33v-2.9Z"/>
    <path class="cls-3" d="M106.14,150.71h.27l.03,.56c.23-.41,.63-.63,1.1-.63,.76,0,1.22,.53,1.22,1.37v1.6h-.33v-1.58c0-.67-.36-1.08-.94-1.08-.61,0-1.04,.47-1.04,1.16v1.5h-.33v-2.9Z"/>
    <path class="cls-3" d="M113.46,152.15c0-.89,.63-1.52,1.53-1.52s1.52,.63,1.52,1.52-.63,1.53-1.52,1.53-1.53-.63-1.53-1.53Zm1.53,1.21c.71,0,1.2-.49,1.2-1.21s-.49-1.21-1.2-1.21-1.2,.49-1.2,1.21,.49,1.21,1.2,1.21Z"/>
    <path class="cls-3" d="M118.98,153.06v1.67h-.33v-4.02h.27l.03,.58c.25-.4,.7-.65,1.24-.65,.88,0,1.49,.64,1.49,1.52s-.61,1.53-1.49,1.53c-.53,0-.96-.24-1.22-.62Zm1.19,.31c.71,0,1.19-.5,1.19-1.21s-.48-1.21-1.19-1.21-1.2,.5-1.2,1.21,.49,1.21,1.2,1.21Z"/>
    <path class="cls-3" d="M123.59,152.15c0-.9,.61-1.52,1.49-1.52s1.5,.67,1.48,1.66h-2.64c.06,.66,.5,1.08,1.15,1.08,.47,0,.85-.22,1.04-.59h.36c-.22,.56-.75,.9-1.4,.9-.88,0-1.48-.62-1.48-1.53Zm2.65-.15c-.08-.66-.53-1.06-1.16-1.06s-1.1,.42-1.16,1.06h2.32Z"/>
    <path class="cls-3" d="M128.69,150.71h.27l.03,.56c.23-.41,.63-.63,1.1-.63,.76,0,1.22,.53,1.22,1.37v1.6h-.33v-1.58c0-.67-.36-1.08-.94-1.08-.61,0-1.04,.47-1.04,1.16v1.5h-.33v-2.9Z"/>
    <path class="cls-3" d="M137.45,149.68h.33l1.63,3.93h-.36l-.41-.99h-2.04l-.4,.99h-.36l1.63-3.93Zm1.05,2.63l-.89-2.16-.89,2.16h1.78Z"/>
    <path class="cls-3" d="M141.18,153.84h.33c.1,.4,.49,.66,1.02,.66,.67,0,1.09-.39,1.09-1.02v-.47c-.26,.35-.67,.57-1.17,.57-.85,0-1.45-.62-1.45-1.47s.61-1.47,1.45-1.47c.51,0,.93,.22,1.19,.59l.03-.52h.27v2.78c0,.78-.57,1.31-1.42,1.31-.71,0-1.24-.38-1.35-.97Zm1.31-.58c.68,0,1.16-.47,1.16-1.15s-.48-1.16-1.16-1.16-1.16,.48-1.16,1.16,.48,1.15,1.16,1.15Z"/>
    <path class="cls-3" d="M146.34,150.71h.27l.03,.65c.2-.44,.53-.65,1.07-.65h.24v.3h-.25c-.62,0-1.04,.38-1.04,1.26v1.34h-.33v-2.9Z"/>
    <path class="cls-3" d="M150.19,149.59c.18,0,.3,.13,.3,.29s-.12,.3-.3,.3-.3-.13-.3-.3,.12-.29,.3-.29Zm-.16,1.12h.33v2.9h-.33v-2.9Z"/>
    <path class="cls-3" d="M152.5,152.15c0-.89,.61-1.52,1.48-1.52,.69,0,1.26,.41,1.42,1.04h-.33c-.19-.46-.59-.72-1.09-.72-.68,0-1.16,.49-1.16,1.21s.47,1.21,1.16,1.21c.53,0,.95-.3,1.11-.77h.34c-.2,.68-.74,1.09-1.45,1.09-.87,0-1.48-.63-1.48-1.53Z"/>
    <path class="cls-3" d="M157.5,152.31v-1.6h.33v1.58c0,.66,.35,1.08,.93,1.08,.6,0,1.02-.47,1.02-1.16v-1.5h.33v2.9h-.27l-.03-.57c-.22,.42-.63,.64-1.08,.64-.75,0-1.21-.53-1.21-1.37Z"/>
    <path class="cls-3" d="M162.49,149.46h.33v4.15h-.33v-4.15Z"/>
    <path class="cls-3" d="M165.44,152.6v-1.6h-.63v-.3h.37c.22,0,.28-.06,.3-.27l.03-.44h.26v.71h1v.3h-1v1.59c0,.48,.2,.7,.63,.7h.41v.31h-.42c-.62,0-.95-.35-.95-1Z"/>
    <path class="cls-3" d="M168.82,152.31v-1.6h.33v1.58c0,.66,.35,1.08,.93,1.08,.6,0,1.02-.47,1.02-1.16v-1.5h.33v2.9h-.27l-.03-.57c-.22,.42-.63,.64-1.08,.64-.75,0-1.21-.53-1.21-1.37Z"/>
    <path class="cls-3" d="M173.81,150.71h.27l.03,.65c.2-.44,.53-.65,1.07-.65h.24v.3h-.25c-.62,0-1.04,.38-1.04,1.26v1.34h-.33v-2.9Z"/>
    <path class="cls-3" d="M177.07,152.79c0-.52,.39-.84,.99-.84h1.28v-.21c0-.48-.35-.8-.89-.8-.44,0-.78,.22-.9,.57h-.33c.14-.54,.61-.88,1.22-.88,.72,0,1.22,.44,1.22,1.09v1.89h-.27l-.03-.5c-.25,.35-.68,.54-1.19,.54-.67,0-1.09-.33-1.09-.86Zm1.11,.57c.67,0,1.17-.42,1.17-1v-.12h-1.27c-.4,0-.67,.22-.67,.55,0,.35,.3,.58,.78,.58Z"/>
    <path class="cls-3" d="M182,149.46h.33v4.15h-.33v-4.15Z"/>
    <path class="cls-3" d="M187.23,152.65c0-.48,.28-.85,.86-1.11-.34-.38-.54-.69-.54-1.04,0-.53,.44-.89,1.09-.89s1.1,.38,1.1,.92c0,.49-.34,.84-1.09,1.13l1.06,1.09c.16-.27,.24-.62,.25-1.04h.33c0,.52-.12,.95-.34,1.28l.61,.62h-.44l-.37-.38c-.3,.3-.71,.45-1.23,.45-.8,0-1.29-.39-1.29-1.03Zm1.3,.71c.41,0,.75-.13,.99-.37l-1.19-1.22c-.52,.21-.77,.5-.77,.87,0,.45,.37,.72,.97,.72Zm-.11-1.95c.72-.27,1-.53,1-.89s-.3-.62-.78-.62-.77,.23-.77,.59c0,.25,.15,.5,.55,.92Z"/>
    <path class="cls-3" d="M195.26,149.68h.32l2.39,3.34v-3.34h.34v3.93h-.32l-2.39-3.34v3.34h-.34v-3.93Z"/>
    <path class="cls-3" d="M200.51,152.15c0-.89,.63-1.52,1.53-1.52s1.52,.63,1.52,1.52-.63,1.53-1.52,1.53-1.53-.63-1.53-1.53Zm1.53,1.21c.71,0,1.2-.49,1.2-1.21s-.49-1.21-1.2-1.21-1.2,.49-1.2,1.21,.49,1.21,1.2,1.21Z"/>
    <path class="cls-3" d="M205.7,150.71h.27l.03,.56c.23-.41,.63-.63,1.1-.63,.76,0,1.22,.53,1.22,1.37v1.6h-.33v-1.58c0-.67-.36-1.08-.94-1.08-.61,0-1.04,.47-1.04,1.16v1.5h-.33v-2.9Z"/>
    <path class="cls-3" d="M214.47,149.68h.33l1.63,3.93h-.36l-.41-.99h-2.04l-.4,.99h-.36l1.63-3.93Zm1.05,2.63l-.89-2.16-.89,2.16h1.78Z"/>
    <path class="cls-3" d="M218.19,153.84h.33c.1,.4,.49,.66,1.02,.66,.67,0,1.09-.39,1.09-1.02v-.47c-.26,.35-.67,.57-1.17,.57-.85,0-1.45-.62-1.45-1.47s.61-1.47,1.45-1.47c.51,0,.93,.22,1.19,.59l.03-.52h.27v2.78c0,.78-.57,1.31-1.42,1.31-.71,0-1.24-.38-1.35-.97Zm1.31-.58c.68,0,1.16-.47,1.16-1.15s-.48-1.16-1.16-1.16-1.16,.48-1.16,1.16,.48,1.15,1.16,1.15Z"/>
    <path class="cls-3" d="M223.36,150.71h.27l.03,.65c.2-.44,.53-.65,1.07-.65h.24v.3h-.25c-.62,0-1.04,.38-1.04,1.26v1.34h-.33v-2.9Z"/>
    <path class="cls-3" d="M227.2,149.59c.18,0,.3,.13,.3,.29s-.12,.3-.3,.3-.3-.13-.3-.3,.12-.29,.3-.29Zm-.16,1.12h.33v2.9h-.33v-2.9Z"/>
    <path class="cls-3" d="M229.51,152.15c0-.89,.61-1.52,1.48-1.52,.69,0,1.26,.41,1.43,1.04h-.33c-.19-.46-.59-.72-1.09-.72-.68,0-1.16,.49-1.16,1.21s.47,1.21,1.16,1.21c.53,0,.95-.3,1.11-.77h.34c-.2,.68-.74,1.09-1.45,1.09-.87,0-1.48-.63-1.48-1.53Z"/>
    <path class="cls-3" d="M234.51,152.31v-1.6h.33v1.58c0,.66,.35,1.08,.93,1.08,.6,0,1.02-.47,1.02-1.16v-1.5h.33v2.9h-.27l-.03-.57c-.22,.42-.63,.64-1.08,.64-.75,0-1.21-.53-1.21-1.37Z"/>
    <path class="cls-3" d="M239.5,149.46h.33v4.15h-.33v-4.15Z"/>
    <path class="cls-3" d="M242.46,152.6v-1.6h-.63v-.3h.37c.22,0,.28-.06,.3-.27l.03-.44h.26v.71h1v.3h-1v1.59c0,.48,.2,.7,.63,.7h.41v.31h-.42c-.62,0-.95-.35-.95-1Z"/>
    <path class="cls-3" d="M245.84,152.31v-1.6h.33v1.58c0,.66,.35,1.08,.93,1.08,.6,0,1.02-.47,1.02-1.16v-1.5h.33v2.9h-.27l-.03-.57c-.22,.42-.63,.64-1.08,.64-.75,0-1.21-.53-1.21-1.37Z"/>
    <path class="cls-3" d="M250.83,150.71h.27l.03,.65c.2-.44,.53-.65,1.07-.65h.24v.3h-.25c-.62,0-1.04,.38-1.04,1.26v1.34h-.33v-2.9Z"/>
    <path class="cls-3" d="M254.09,152.79c0-.52,.39-.84,.99-.84h1.28v-.21c0-.48-.35-.8-.89-.8-.44,0-.78,.22-.9,.57h-.33c.14-.54,.61-.88,1.22-.88,.72,0,1.22,.44,1.22,1.09v1.89h-.27l-.03-.5c-.25,.35-.68,.54-1.19,.54-.67,0-1.09-.33-1.09-.86Zm1.11,.57c.67,0,1.17-.42,1.17-1v-.12h-1.27c-.4,0-.67,.22-.67,.55,0,.35,.3,.58,.78,.58Z"/>
    <path class="cls-3" d="M259.02,149.46h.33v4.15h-.33v-4.15Z"/>
    <path class="cls-3" d="M264.54,149.68h.34v3.6h1.99v.33h-2.33v-3.93Z"/>
    <path class="cls-3" d="M268.58,152.79c0-.52,.39-.84,.99-.84h1.28v-.21c0-.48-.35-.8-.89-.8-.44,0-.78,.22-.9,.57h-.33c.14-.54,.61-.88,1.22-.88,.72,0,1.22,.44,1.22,1.09v1.89h-.27l-.03-.5c-.25,.35-.68,.54-1.19,.54-.67,0-1.09-.33-1.09-.86Zm1.11,.57c.67,0,1.17-.42,1.17-1v-.12h-1.27c-.4,0-.67,.22-.67,.55,0,.35,.3,.58,.78,.58Z"/>
    <path class="cls-3" d="M273.5,150.71h.27l.03,.56c.23-.41,.63-.63,1.1-.63,.76,0,1.22,.53,1.22,1.37v1.6h-.33v-1.58c0-.67-.36-1.08-.94-1.08-.61,0-1.04,.47-1.04,1.16v1.5h-.33v-2.9Z"/>
    <path class="cls-3" d="M278.21,152.15c0-.88,.61-1.52,1.49-1.52,.53,0,.96,.24,1.22,.61v-1.79h.33v4.15h-.27l-.04-.57c-.25,.4-.7,.65-1.24,.65-.88,0-1.49-.65-1.49-1.53Zm1.53,1.21c.71,0,1.19-.5,1.19-1.21s-.49-1.21-1.19-1.21-1.2,.5-1.2,1.21,.49,1.21,1.2,1.21Z"/>
  </g>
  <g>
    <path class="cls-1" d="M93.99,102.72c-2.93,.63-5.41,1.14-5.51,1.14s-.16-.2-.12-.45c.06-.39,.45-.55,3-1.23,1.61-.43,5.29-1.42,8.17-2.19,15.76-4.25,21.09-6.92,27.37-7.48,2.91-.26,12.03,.94,24.17,.67,11.52-.26,17.23-.69,25.96-1.98,7.45-1.1,12.12-2.03,29.45-5.84,24.08-5.3,41.76-7.64,64.31-8.5,3.05-.12,6.66-.26,8.01-.32l2.46-.1v7.42c0,4.08-.07,7.47-.16,7.52-.09,.05-1.95,.01-4.14-.09-11.84-.57-34.04-.46-47.86,.24-19.02,.95-33.9,2.7-59.99,7.03-5.89,.98-11.18,1.83-11.76,1.9-.58,.06-2.79-.04-4.92-.22-8.68-.76-13.3-.99-21.79-1.11-14.82-.2-22.31,.53-36.65,3.61Z"/>
    <path class="cls-2" d="M231.91,117.46c-3.31-.59-7.1-1.29-8.96-1.65-.02,0-.04,0-.05,0-.2-.03-.36-.06-.51-.09-.22-.04-.45-.09-.68-.13h-.02c-.11-.02-.23-.04-.34-.06-4.9-.93-11.66-2.14-18.4-3.31-.34-.06-.67-.13-1.01-.18-.05,0-.09-.02-.13-.02-.28-.05-.56-.09-.84-.15-.36-.05-.71-.12-1.06-.18-.09-.02-.16-.03-.24-.04-.09-.02-.19-.04-.27-.05h-.02c-.43-.08-.85-.15-1.27-.22-.77-.13-1.53-.27-2.29-.39-.07-.02-.15-.02-.22-.04-.77-.13-1.53-.26-2.27-.38-1.06-.18-2.1-.35-3.1-.52-.15-.02-.29-.05-.44-.07-.08,0-.16-.02-.23-.04-.67-.11-1.33-.22-1.97-.32-.02,0-.04,0-.05,0-.22-.04-.44-.07-.65-.11-.04,0-.07,0-.11-.02-.08-.02-.16-.02-.23-.04-.13-.02-.25-.04-.38-.05-.14-.03-.29-.05-.43-.07-.39-.07-.77-.13-1.15-.19-3.99-.63-4.72-.74-13.09-1.9-5.21-.73-14.06-1.7-19.8-2.19-5.4-.46-18.45-.64-23.14-.33-12.32,.83-23.28,3.45-38.45,9.19-5.37,2.03-9.56,3.68-11.32,4.44H236.64l-4.72-.86Zm48.45-18.07c-1.57-.22-13.94-1.35-18.39-1.69-21.8-1.62-41.32-1.83-58.87-.63-7.29,.49-15.31,1.26-23.04,2.2-4.32,.52-15.37,2.09-15.47,2.19-.09,.09,.33,.15,7.72,1.04,7.64,.93,18.78,2.57,25.56,3.78,.98,.17,3.43,.6,5.44,.96,9.51,1.68,19.98,3.82,37.39,7.63,2.42,.53,6.38,1.38,8.8,1.9,2.42,.52,5.44,1.17,6.71,1.45,.17,.04,.34,.08,.52,.11h24.4c.06-1.23,.11-4.9,.11-9.2v-9.61l-.88-.13Z"/>
    <g>
      <path class="cls-4" d="M109.58,72.79c6.01,3.27,11.98,6.6,18.03,9.77,4.78,2.52,9.72,4.74,14.9,6.36,3.3,1.06,6.7,1.55,10.17,1.53-.16-.11-.32-.19-.51-.27-3.79-1.38-7.47-3.05-10.99-5.02-7.7-4.33-14.73-9.6-21.25-15.55-1.54-1.41-1.5-1.43-3.43-.73-.12,.04-.24,.09-.36,.13-2.44,1.01-4.88,2.04-7.32,3.05,.02,.08,.05,.16,.07,.24,.25,.19,.45,.35,.69,.48Z"/>
      <path class="cls-4" d="M139.28,90.47c-.53-.17-.97-.32-1.42-.48-3.02-1.12-6.1-2.14-9.06-3.39-8.02-3.4-15.73-7.39-23.33-11.62-.2-.12-.65-.1-.82,.04-1.83,1.39-3.64,2.81-5.45,4.24,.02,.1,.03,.2,.05,.3,12.68,5.88,25.88,10,40.03,10.91Z"/>
      <path class="cls-4" d="M123.13,90.64c-.27-.11-.53-.19-.79-.24-6.03-1.02-11.98-2.31-17.81-4.2-2.81-.91-5.57-1.96-8.35-2.97-.33-.11-.61-.31-.92,.1-1.2,1.6-2.46,3.16-3.78,4.86,10.5,3.09,20.99,3.65,31.66,2.44Z"/>
      <path class="cls-4" d="M115.15,93.45c-8.66,.43-17.25,.16-25.76-1.84-.93,1.85-1.83,3.6-2.8,5.49,9.8,.28,19.23-1.28,28.56-3.66Z"/>
      <path class="cls-4" d="M143.37,83.02c3.89,2.28,7.92,4.3,12.27,5.59,4.77,1.4,9.53,1.49,14.24-.2,1.15-.41,2.24-.96,3.43-1.5-2.21-2.95-4.75-5.63-7.54-8.03-.51-.45-1.05-.87-1.58-1.3-.82-.66-1.68-1.28-2.54-1.88-.71-.5-1.45-.99-2.21-1.45-1.24-.79-2.55-1.5-3.87-2.16-.47-.25-.96-.48-1.44-.7-.29-.13-.57-.27-.88-.4-.99-.44-1.99-.85-3-1.22-.91-.34-1.85-.65-2.79-.93-.34-.11-.71-.2-1.05-.31-.69-.18-1.37-.37-2.08-.53-.97-.21-1.94-.43-2.93-.58-3.21-.53-6.5-.79-9.87-.7-2.91,.08-5.75,.4-8.51,.95,.92,.8,1.85,1.58,2.75,2.37,5.47,4.87,11.27,9.27,17.59,12.97Z"/>
    </g>
  </g>
</svg>